#!OML:ASF H:\Terrain\Patient Classification 1\Animal1\Tuesday\Animal1.ASF
:FULLY-SPECIFIED
:DEGREES
1411
root 27.0933 15.744 -25.6792 -169.597 -186.053 -178.534
lowerback 0.611572 -0.178259 3.93558
upperback -9.08754 0.168649 1.84202
thorax -9.97491 -0.142148 -0.251746
lowerneck -13.4665 2.03602 -3.69452
upperneck 14.1805 3.05253 2.88913
head 6.42193 1.52367 1.81408
rclavicle 2.10712e-014 -3.18055e-015
rhumerus -38.1994 19.0455 -102.026
rradius 70.0336
rwrist 11.1682
rhand -5.5652 17.6906
rfingers 7.12502
rthumb 20.2503 -11.2738
lclavicle 2.10712e-014 -3.18055e-015
lhumerus -38.9052 -19.1083 107.897
lradius 69.8367
lwrist -54.5457
lhand 20.6393 53.2479
lfingers 7.12502
lthumb 45.1301 76.696
rfemur -35.7748 23.0857 3.43467
rtibia 35.6086
rfoot -18.1148 -25.0323
rtoes 11.8982
lfemur -21.121 -11.0813 -20.5702
ltibia 35.3741
lfoot -20.1867 17.3618
ltoes -18.2173
1412
root 27.0891 15.751 -25.6759 -169.392 -185.386 -178.456
lowerback 0.675312 -0.189358 3.83659
upperback -9.16613 0.152694 1.8463
thorax -10.1013 -0.144741 -0.188795
lowerneck -13.4105 2.08119 -3.58988
upperneck 14.113 3.09504 2.86189
head 6.39143 1.5478 1.7901
rclavicle -2.5842e-015 -1.19271e-014
rhumerus -38.4435 19.1311 -102.007
rradius 70.1221
rwrist 11.1154
rhand -5.88832 18.557
rfingers 7.12502
rthumb 19.9397 -10.44
lclavicle -2.5842e-015 -1.19271e-014
lhumerus -38.4703 -17.8005 106.979
lradius 69.4905
lwrist -54.7399
lhand 22.7693 50.2559
lfingers 7.12502
lthumb 47.1056 72.8755
rfemur -36.1727 23.0044 3.26383
rtibia 35.5116
rfoot -17.9867 -24.6727
rtoes 12.6176
lfemur -21.0581 -10.8067 -20.7009
ltibia 35.0339
lfoot -20.103 17.6204
ltoes -18.0097
1413
root 27.0801 15.7557 -25.6712 -169.185 -184.526 -178.459
lowerback 0.655641 -0.13962 3.6804
upperback -9.18133 0.213317 1.91781
thorax -10.1035 -0.0995458 -0.0309954
lowerneck -13.3857 2.16096 -3.65587
upperneck 13.9647 3.19665 2.98179
head 6.33286 1.60458 1.8453
rclavicle -1.70955e-014 -1.27222e-014
rhumerus -38.6243 19.0765 -101.943
rradius 70.2697
rwrist 11.1709
rhand -6.69946 18.891
rfingers 7.12502
rthumb 19.1598 -10.1852
lclavicle -1.70955e-014 -1.27222e-014
lhumerus -38.6021 -17.903 107.177
lradius 69.245
lwrist -55.4845
lhand 20.4719 49.213
lfingers 7.12502
lthumb 44.9744 72.7226
rfemur -36.7097 23.2197 3.09879
rtibia 35.4399
rfoot -18.4672 -24.2238
rtoes 15.3279
lfemur -20.9822 -10.488 -20.7449
ltibia 34.7252
lfoot -20.0828 18.0119
ltoes -17.5682
1414
root 27.0692 15.7608 -25.6663 -169.039 -183.65 -178.352
lowerback 0.757136 -0.17891 3.49625
upperback -9.25617 0.156263 1.9426
thorax -10.2492 -0.114169 0.105497
lowerneck -13.2748 2.32477 -3.79445
upperneck 13.9374 3.39719 3.26611
head 6.28961 1.71802 1.97377
rclavicle -1.59028e-015 -4.6118e-014
rhumerus -38.9703 19.0926 -102.231
rradius 70.2825
rwrist 11.9258
rhand -8.70042 19.2521
rfingers 7.12502
rthumb 17.2348 -10.0036
lclavicle -1.59028e-015 -4.6118e-014
lhumerus -38.851 -17.3902 107.059
lradius 69.3674
lwrist -55.5168
lhand 20.2357 49.0301
lfingers 7.12502
lthumb 44.7546 72.6256
rfemur -37.1473 23.416 2.86827
rtibia 35.3388
rfoot -18.4034 -24.1069
rtoes 15.9087
lfemur -20.8617 -10.184 -20.9218
ltibia 34.4987
lfoot -20.2299 18.234
ltoes -16.7192
1415
root 27.0591 15.7654 -25.6608 -168.851 -182.81 -178.254
lowerback 0.788145 -0.235447 3.33826
upperback -9.42501 0.0777091 1.97563
thorax -10.4599 -0.141855 0.239954
lowerneck -12.7996 2.5257 -3.84652
upperneck 13.8834 3.62599 3.5039
head 6.17615 1.84444 2.06757
rclavicle -1.98785e-016 1.59028e-015
rhumerus -39.5458 19.4045 -102.742
rradius 70.1604
rwrist 13.3174
rhand -12.4912 19.7455
rfingers 7.12502
rthumb 13.5837 -9.79136
lclavicle -1.98785e-016 1.59028e-015
lhumerus -39.2036 -16.5212 106.777
lradius 69.8339
lwrist -54.4995
lhand 21.9468 47.7659
lfingers 7.12502
lthumb 46.3441 70.7157
rfemur -37.5929 23.4789 2.6688
rtibia 35.2101
rfoot -17.7385 -24.0214
rtoes 15.1753
lfemur -20.8251 -9.81059 -21.0882
ltibia 34.3224
lfoot -20.2418 18.5017
ltoes -16.6694
1416
root 27.0525 15.7676 -25.6548 -168.542 -182.138 -178.341
lowerback 0.600254 -0.211696 3.37504
upperback -9.51221 0.107776 2.02344
thorax -10.4457 -0.129154 0.268051
lowerneck -12.535 2.61994 -3.74371
upperneck 13.669 3.71862 3.55277
head 6.06017 1.89903 2.06481
rclavicle 1.25234e-014 -2.22639e-014
rhumerus -39.6232 19.1376 -102.576
rradius 70.0905
rwrist 13.2698
rhand -11.1821 20.0048
rfingers 7.12502
rthumb 14.8451 -9.44338
lclavicle 1.25234e-014 -2.22639e-014
lhumerus -39.3368 -16.4123 106.772
lradius 69.8771
lwrist -54.0525
lhand 22.1346 47.7572
lfingers 7.12502
lthumb 46.5182 70.6328
rfemur -38.1441 23.4561 2.62432
rtibia 35.0841
rfoot -17.1359 -24.1501
rtoes 13.912
lfemur -20.9767 -9.55361 -21.0065
ltibia 34.1432
lfoot -20.0092 18.9917
ltoes -17.3098
1417
root 27.0474 15.7715 -25.6536 -168.314 -181.693 -178.431
lowerback 0.598479 -0.15176 3.54165
upperback -9.26438 0.181723 1.9501
thorax -10.1627 -0.107096 0.0854546
lowerneck -13.7991 2.50708 -3.6206
upperneck 13.7533 3.56636 3.64025
head 6.30911 1.84371 2.08648
rclavicle -5.66536e-015 -5.56597e-015
rhumerus -38.8847 18.8877 -102.248
rradius 69.5439
rwrist 14.6829
rhand -12.5192 20.0712
rfingers 7.12502
rthumb 13.5566 -9.46751
lclavicle -5.66536e-015 -5.56597e-015
lhumerus -38.757 -17.0828 106.648
lradius 69.3693
lwrist -55.1975
lhand 20.8906 48.7364
lfingers 7.12502
lthumb 45.3638 72.0912
rfemur -38.5126 23.3374 2.65522
rtibia 34.9621
rfoot -17.4404 -24.2492
rtoes 13.9057
lfemur -21.0896 -9.46751 -20.8992
ltibia 33.9583
lfoot -19.722 19.3329
ltoes -17.9332
1418
root 27.0387 15.7779 -25.6508 -168.383 -181.115 -178.384
lowerback 0.899161 -0.189065 3.52762
upperback -9.19093 0.138101 1.91085
thorax -10.2612 -0.130704 0.0563515
lowerneck -13.8354 2.51919 -3.58395
upperneck 13.5398 3.56019 3.75093
head 6.2459 1.85326 2.11197
rclavicle 9.74045e-015 1.27222e-014
rhumerus -38.8786 18.9849 -102.345
rradius 69.4702
rwrist 14.6763
rhand -12.8679 20.2516
rfingers 7.12502
rthumb 13.2206 -9.30914
lclavicle 9.74045e-015 1.27222e-014
lhumerus -38.3923 -16.3945 106.065
lradius 69.9878
lwrist -53.0156
lhand 25.1703 49.7533
lfingers 7.12502
lthumb 49.3175 71.3272
rfemur -38.5636 23.4048 2.65127
rtibia 34.8568
rfoot -18.5717 -24.179
rtoes 15.58
lfemur -20.7948 -9.23607 -21.0218
ltibia 33.744
lfoot -19.6121 19.5665
ltoes -18.3141
1419
root 27.0295 15.7824 -25.6374 -168.272 -180.261 -178.372
lowerback 0.832666 -0.136432 3.4829
upperback -9.10742 0.197021 1.90877
thorax -10.1246 -0.0972094 0.0716372
lowerneck -14.0332 2.55326 -3.58891
upperneck 13.4819 3.59773 3.8513
head 6.2574 1.88084 2.15097
rclavicle -4.87022e-015 2.38542e-015
rhumerus -38.8327 19.14 -102.38
rradius 70.3609
rwrist 12.2108
rhand -9.71556 20.4571
rfingers 7.12502
rthumb 16.2575 -8.88128
lclavicle -4.87022e-015 2.38542e-015
lhumerus -38.8689 -17.2409 106.759
lradius 69.1056
lwrist -56.319
lhand 18.1064 48.6164
lfingers 7.12502
lthumb 42.7672 72.9441
rfemur -38.8925 23.5207 2.59957
rtibia 34.7816
rfoot -17.5212 -24.1976
rtoes 13.5101
lfemur -20.5803 -8.87184 -21.1202
ltibia 33.4827
lfoot -19.7315 19.9252
ltoes -17.9249
1420
root 27.0226 15.7854 -25.6261 -167.951 -179.453 -178.325
lowerback 0.605026 -0.0771464 3.40771
upperback -9.11966 0.261521 1.94225
thorax -9.99959 -0.0574562 0.142298
lowerneck -14.0856 2.57591 -3.70503
upperneck 13.3378 3.64059 3.94631
head 6.21446 1.90465 2.20214
rclavicle -1.09332e-015 -3.4191e-014
rhumerus -38.7801 19.1159 -102.156
rradius 70.6709
rwrist 11.1154
rhand -7.22383 20.7738
rfingers 7.12502
rthumb 18.6555 -8.35168
lclavicle -1.09332e-015 -3.4191e-014
lhumerus -38.6344 -16.6302 106.419
lradius 69.597
lwrist -54.7541
lhand 21.5484 49.0142
lfingers 7.12502
lthumb 45.9747 72.1193
rfemur -39.4694 23.4807 2.43992
rtibia 34.7463
rfoot -16.7828 -24.2051
rtoes 11.5417
lfemur -20.6154 -8.61488 -21.2119
ltibia 33.2037
lfoot -19.8223 20.2276
ltoes -17.002
